<svg width="302" height="52" viewBox="0 0 302 52" fill="none" xmlns="http://www.w3.org/2000/svg">
<path d="M56.0025 17.4857L62.9231 3.63908L64.7373 0H54.1616L45.4161 17.4857H25.764C25.4438 17.4857 25.113 17.4911 24.7928 17.5017C16.0366 17.8059 8.10749 22.2133 3.25716 29.3581C2.56349 30.3666 1.93919 31.4338 1.37892 32.5543C-0.643381 36.5989 -0.429945 41.3052 1.94453 45.147C4.32434 48.9888 8.43298 51.2833 12.9525 51.2833H39.0984L39.109 51.2673L43.8313 41.8174L51.2642 26.9463H96.6406L101.379 17.4804H56.0025V17.4857ZM33.2502 41.8227H12.9525C11.2023 41.8227 10.3059 40.6702 9.99639 40.1739C9.69225 39.683 9.06261 38.3597 9.84699 36.791C10.4499 35.5904 11.1703 34.4699 12.0027 33.4614C15.1669 29.5769 19.8411 27.1917 24.9689 26.9729C25.2304 26.9569 25.4972 26.9569 25.764 26.9569H40.6885L33.2502 41.8281V41.8227Z" fill="white"/>
<path d="M87.18 36.4443L77.0258 46.5985C74.0004 49.6187 69.9878 51.2835 65.7137 51.2835H46.0403V51.2674L50.7625 41.8176H65.7084C67.4532 41.8176 69.0913 41.1399 70.3293 39.9073L73.7869 36.4443H87.1747H87.18Z" fill="#2DBDB6"/>
<path d="M106.208 36.4335L110.055 18.2808H123.704C127.685 18.2808 129.419 18.8037 129.419 21.0821C129.419 21.5196 129.339 22.0426 129.227 22.6188L127.221 32.0954C126.452 35.6651 124.697 36.4335 119.863 36.4335H106.213H106.208ZM125.321 23.3872C125.375 23.0564 125.433 22.7576 125.433 22.5068C125.433 21.2155 124.499 20.858 122.194 20.858H113.267L110.493 33.8456H119.42C122.109 33.8456 123.235 33.3226 123.651 31.3484L125.327 23.3819L125.321 23.3872Z" fill="#2DBDB6" stroke="#2DBDB6" stroke-width="1.98054" stroke-miterlimit="10"/>
<path d="M130.54 36.4335L133.394 22.9497H137.129L136.799 24.4864C137.321 23.9102 138.335 22.9497 141.275 22.9497H148.169L147.62 25.5323H139.05C137.321 25.5323 136.521 26.274 136.137 27.5919L134.269 36.4335H130.534H130.54Z" fill="#2DBDB6" stroke="#2DBDB6" stroke-width="1.98054" stroke-miterlimit="10"/>
<path d="M148.938 36.4336L151.792 22.9498H155.581L152.726 36.4336H148.938ZM152.315 21.0555L153.004 17.7046H156.659L155.97 21.0555H152.315Z" fill="#2DBDB6" stroke="#2DBDB6" stroke-width="1.98054" stroke-miterlimit="10"/>
<path d="M164.785 36.4335L158.91 22.9497H163.361L167.725 33.9363L176.898 22.9497H181.017L169.401 36.4335H164.785Z" fill="#2DBDB6" stroke="#2DBDB6" stroke-width="1.98054" stroke-miterlimit="10"/>
<path d="M186.508 36.4335C182.661 36.4335 180.932 35.5798 180.932 33.1679C180.932 32.6984 180.985 32.2075 181.097 31.6579L182.084 27.069C182.714 24.1556 184.966 22.9497 188.925 22.9497H198.236C201.038 22.9497 202.19 23.7448 202.19 25.4202C202.19 25.7511 202.137 26.1086 202.051 26.5194L201.779 27.784C201.23 30.3399 200.242 30.9962 197.057 30.9962H184.944L184.832 31.4658C184.752 31.7966 184.72 32.0954 184.72 32.3462C184.72 33.6642 185.681 34.0484 187.959 34.0484H199.661L199.165 36.4388H186.503L186.508 36.4335ZM195.68 29.3474C197.302 29.3474 197.82 29.0166 198.124 27.8107L198.29 27.1224C198.316 26.957 198.343 26.7649 198.343 26.6261C198.343 25.7724 197.74 25.3615 196.283 25.3615H188.952C187.084 25.3615 185.985 25.9645 185.686 27.3945L185.275 29.3421H195.686L195.68 29.3474Z" fill="#2DBDB6" stroke="#2DBDB6" stroke-width="1.98054" stroke-miterlimit="10"/>
<path d="M210.151 36.4335L213.449 20.8633H205.979L206.528 18.2808H225.118L224.569 20.8633H217.184L213.886 36.4335H210.151Z" fill="white" stroke="white" stroke-width="1.98054" stroke-miterlimit="10"/>
<path d="M229.462 36.4335C225.615 36.4335 223.886 35.5798 223.886 33.1679C223.886 32.6984 223.939 32.2075 224.051 31.6579L225.038 27.069C225.668 24.1556 227.92 22.9497 231.879 22.9497H241.19C243.991 22.9497 245.144 23.7448 245.144 25.4202C245.144 25.7511 245.091 26.1086 245.005 26.5194L244.733 27.784C244.183 30.3399 243.196 30.9962 240.011 30.9962H227.898L227.786 31.4658C227.706 31.7966 227.674 32.0954 227.674 32.3462C227.674 33.6642 228.635 34.0484 230.913 34.0484H242.615L242.118 36.4388H229.456L229.462 36.4335ZM238.634 29.3474C240.256 29.3474 240.774 29.0166 241.078 27.8107L241.243 27.1224C241.27 26.957 241.297 26.7649 241.297 26.6261C241.297 25.7724 240.694 25.3615 239.237 25.3615H231.906C230.038 25.3615 228.939 25.9645 228.64 27.3945L228.229 29.3421H238.64L238.634 29.3474Z" fill="white" stroke="white" stroke-width="1.98054" stroke-miterlimit="10"/>
<path d="M252.886 36.4335C248.879 36.4335 247.23 35.9372 247.23 33.8509C247.23 33.4667 247.284 33.0292 247.396 32.5329L247.508 31.9567C248.084 28.9632 249.541 28.2749 254.674 28.2749H264.422L264.561 27.5599C264.615 27.2557 264.641 27.0103 264.641 26.7915C264.641 25.5856 263.734 25.2815 261.509 25.2815H249.727L250.224 22.9443H262.859C266.898 22.9443 268.574 23.4939 268.574 25.6923C268.574 26.1032 268.52 26.5727 268.408 27.0903L266.429 36.4281H252.892L252.886 36.4335ZM263.185 34.0964L264.065 29.897H254.781C252.449 29.897 251.483 30.2812 251.184 31.7912L251.104 32.2021C251.051 32.4209 251.051 32.613 251.051 32.7784C251.051 33.8242 251.872 34.0964 253.905 34.0964H263.19H263.185Z" fill="white" stroke="white" stroke-width="1.98054" stroke-miterlimit="10"/>
<path d="M291.55 25.5322C289.656 25.5322 288.861 26.2739 288.503 27.5919L286.636 36.4335H283.039L284.88 27.6986C284.934 27.4532 284.96 27.2291 284.96 27.0103C284.96 25.8844 284.08 25.5269 282.159 25.5269H279.47C277.575 25.5269 276.807 26.2419 276.423 27.5866L274.555 36.4281H270.793L273.648 22.9443H277.41L277.079 24.4811C277.629 23.8514 278.755 22.9443 281.529 22.9443H283.397C286.145 22.9443 287.788 23.2752 288.45 24.401C289.384 23.5473 290.782 22.9443 292.735 22.9443H295.616C299.271 22.9443 301 23.5206 301 25.7457C301 26.1299 300.947 26.5994 300.835 27.0903L298.855 36.4281H295.093L296.934 27.6666C296.987 27.4212 297.014 27.197 297.014 27.005C297.014 25.8791 296.134 25.5216 294.213 25.5216H291.55V25.5322Z" fill="white" stroke="white" stroke-width="1.98054" stroke-miterlimit="10"/>
<path d="M109.436 49.3625H105.68L104.602 51.0913H103.118L107.974 43.6211H109.351L111.208 51.0913H109.831L109.436 49.3625ZM109.18 48.274L108.422 44.9871L106.363 48.274H109.18Z" fill="white"/>
<path d="M115.951 50.5151C115.434 50.0615 115.178 49.4319 115.178 48.6368C115.178 48.4021 115.204 48.1353 115.263 47.8365L116.106 43.6211H117.494L116.65 47.8151C116.602 48.0979 116.576 48.322 116.576 48.4768C116.576 48.973 116.72 49.3518 117.003 49.6026C117.285 49.8534 117.696 49.9815 118.23 49.9815C118.827 49.9815 119.308 49.8054 119.665 49.4586C120.023 49.1117 120.284 48.5568 120.439 47.8044L121.271 43.6211H122.637L121.784 47.9005C121.565 48.9943 121.143 49.8214 120.524 50.371C119.905 50.9206 119.094 51.1981 118.091 51.1981C117.179 51.1981 116.469 50.9686 115.951 50.5151Z" fill="white"/>
<path d="M128.405 44.795H125.929L126.164 43.6211H132.503L132.258 44.795H129.782L128.533 51.0913H127.146L128.405 44.795Z" fill="white"/>
<path d="M136.436 50.7981C135.897 50.5313 135.486 50.1578 135.203 49.6776C134.92 49.1974 134.776 48.6424 134.776 48.0075C134.776 47.1697 134.968 46.4067 135.347 45.7237C135.726 45.0407 136.265 44.5018 136.964 44.1069C137.663 43.7121 138.458 43.5146 139.355 43.5146C140.096 43.5146 140.731 43.648 141.27 43.9148C141.809 44.1816 142.22 44.5551 142.503 45.0354C142.786 45.5156 142.93 46.0705 142.93 46.7055C142.93 47.5432 142.738 48.3063 142.359 48.9893C141.98 49.6723 141.441 50.2112 140.742 50.606C140.043 51.0009 139.248 51.1983 138.351 51.1983C137.61 51.1983 136.975 51.0649 136.436 50.7981ZM140.075 49.5495C140.539 49.2614 140.902 48.8719 141.153 48.3863C141.404 47.9008 141.532 47.3672 141.532 46.7909C141.532 46.1666 141.329 45.665 140.929 45.2915C140.528 44.918 139.958 44.7312 139.227 44.7312C138.624 44.7312 138.085 44.8753 137.62 45.1634C137.156 45.4516 136.799 45.8411 136.548 46.3267C136.297 46.8122 136.174 47.3458 136.174 47.9221C136.174 48.5464 136.372 49.048 136.772 49.4215C137.172 49.795 137.738 49.9817 138.469 49.9817C139.072 49.9817 139.611 49.8377 140.075 49.5495Z" fill="white"/>
<path d="M152.678 50.9526C152.15 50.7872 151.739 50.5791 151.44 50.323L152.027 49.2345C152.342 49.4853 152.71 49.6827 153.143 49.8267C153.575 49.9708 154.012 50.0455 154.461 50.0455C155.01 50.0455 155.442 49.9495 155.768 49.7627C156.093 49.576 156.253 49.3145 156.253 48.989C156.253 48.8023 156.189 48.6475 156.056 48.5248C155.923 48.4021 155.763 48.3007 155.565 48.2206C155.368 48.1406 155.096 48.0552 154.749 47.9539C154.263 47.8098 153.874 47.6764 153.575 47.543C153.276 47.4096 153.02 47.2122 152.806 46.9507C152.593 46.6892 152.486 46.3477 152.486 45.9262C152.486 45.4406 152.625 45.0191 152.897 44.6563C153.169 44.2934 153.553 44.0106 154.044 43.8132C154.535 43.6158 155.101 43.5144 155.741 43.5144C156.227 43.5144 156.686 43.5677 157.118 43.6798C157.55 43.7919 157.924 43.9466 158.238 44.144L157.694 45.2432C157.417 45.0565 157.102 44.9177 156.755 44.8163C156.408 44.715 156.045 44.6669 155.666 44.6669C155.112 44.6669 154.674 44.7683 154.348 44.9711C154.023 45.1739 153.863 45.4406 153.863 45.7768C153.863 45.9689 153.932 46.129 154.066 46.257C154.199 46.3851 154.364 46.4865 154.557 46.5612C154.749 46.6359 155.031 46.7319 155.4 46.844C155.869 46.9774 156.253 47.1108 156.552 47.2388C156.851 47.3669 157.107 47.5537 157.315 47.8044C157.523 48.0552 157.63 48.3754 157.63 48.7756C157.63 49.2665 157.491 49.6934 157.219 50.0562C156.947 50.419 156.558 50.7018 156.056 50.8993C155.554 51.0967 154.978 51.1981 154.332 51.1981C153.756 51.1981 153.207 51.118 152.678 50.9526ZM158.206 41.5508L156.595 43.0128H155.378L154.14 41.5508H155.208L156.051 42.3405L157.086 41.5508H158.206Z" fill="white"/>
<path d="M165.468 47.1001L168.125 51.0913H166.578L164.454 47.9432L163.035 49.1811L162.651 51.0913H161.274L162.768 43.6211H164.145L163.387 47.3989L167.731 43.6211H169.481L165.49 47.0894L165.468 47.1001Z" fill="white"/>
<path d="M173.275 50.7981C172.736 50.5313 172.325 50.1578 172.042 49.6776C171.759 49.1974 171.615 48.6424 171.615 48.0075C171.615 47.1697 171.807 46.4067 172.186 45.7237C172.565 45.0407 173.104 44.5018 173.803 44.1069C174.502 43.7121 175.297 43.5146 176.193 43.5146C176.935 43.5146 177.57 43.648 178.109 43.9148C178.648 44.1816 179.059 44.5551 179.342 45.0354C179.624 45.5156 179.768 46.0705 179.768 46.7055C179.768 47.5432 179.576 48.3063 179.198 48.9893C178.819 49.6723 178.28 50.2112 177.581 50.606C176.882 51.0009 176.087 51.1983 175.19 51.1983C174.449 51.1983 173.814 51.0649 173.275 50.7981ZM176.914 49.5495C177.378 49.2614 177.741 48.8719 177.992 48.3863C178.242 47.9008 178.37 47.3672 178.37 46.7909C178.37 46.1666 178.168 45.665 177.768 45.2915C177.367 44.918 176.796 44.7312 176.065 44.7312C175.462 44.7312 174.923 44.8753 174.459 45.1634C173.995 45.4516 173.638 45.8411 173.387 46.3267C173.136 46.8122 173.013 47.3458 173.013 47.9221C173.013 48.5464 173.211 49.048 173.611 49.4215C174.011 49.795 174.577 49.9817 175.308 49.9817C175.911 49.9817 176.45 49.8377 176.914 49.5495Z" fill="white"/>
<path d="M184.608 43.6211H185.995L184.736 49.9175H188.642L188.407 51.0913H183.114L184.608 43.6211Z" fill="white"/>
<path d="M197.489 49.3625H193.733L192.655 51.0913H191.171L196.027 43.6211H197.404L199.261 51.0913H197.884L197.489 49.3625ZM197.233 48.274L196.475 44.9871L194.416 48.274H197.233Z" fill="white"/>
</svg>
